<svg width="19" height="19" viewBox="0 0 19 19" fill="none" xmlns="http://www.w3.org/2000/svg">
<path id="Vector" d="M11.4 3.61905C11.4 2.62381 10.545 1.80952 9.5 1.80952H8.55V0.904762C8.55 0.407143 8.1225 0 7.6 0H3.8C3.2775 0 2.85 0.407143 2.85 0.904762V1.80952H1.9C0.855 1.80952 0 2.62381 0 3.61905V17.1905C0 18.1857 0.855 19 1.9 19H9.5C10.545 19 11.4 18.1857 11.4 17.1905H19V3.61905H11.4ZM9.5 15.381H7.6V13.5714H9.5V15.381ZM9.5 7.2381H7.6V5.42857H9.5V7.2381ZM13.3 15.381H11.4V13.5714H13.3V15.381ZM13.3 7.2381H11.4V5.42857H13.3V7.2381ZM17.1 15.381H15.2V13.5714H17.1V15.381ZM17.1 7.2381H15.2V5.42857H17.1V7.2381Z" fill="#98CDB3"/>
</svg>
