<svg width="20" height="24" viewBox="0 0 20 24" fill="none" xmlns="http://www.w3.org/2000/svg">
<path d="M17.75 12.0996C17.75 16.2416 14.392 19.5996 10.25 19.5996C6.108 19.5996 2.75 16.2416 2.75 12.0996C2.75 10.8356 3.0625 9.64461 3.615 8.59961C4.13338 7.61841 4.86273 6.76426 5.75061 6.09857C6.63849 5.43288 7.66283 4.97218 8.75 4.74961C9.235 4.65111 9.7365 4.59961 10.25 4.59961C10.7635 4.59961 11.265 4.65111 11.75 4.74961C12.8372 4.97218 13.8615 5.43288 14.7494 6.09857C15.6373 6.76426 16.3666 7.61841 16.885 8.59961C17.4549 9.67812 17.7518 10.8798 17.75 12.0996Z" stroke="#71727A" stroke-width="1.5" stroke-linecap="round" stroke-linejoin="round"/>
<path d="M10.25 15.0996V8.59961L8.75 9.09961M10.25 15.0996H12.25M10.25 15.0996H8.25" stroke="#71727A" stroke-width="1.5" stroke-linecap="round" stroke-linejoin="round"/>
<path d="M6.99998 1.00002C4.49994 1.00003 10.2666 4.00002 10.2666 4.00002C10.2666 4.00002 15.5 1.00002 14 1.00002H6.99998Z" fill="#71727A" stroke="#71727A"/>
</svg>
