<svg width="14" height="18" viewBox="0 0 14 18" fill="none" xmlns="http://www.w3.org/2000/svg">
<path d="M12.9033 10.9517C12.9033 14.2386 10.2386 16.9033 6.95166 16.9033C3.66476 16.9033 1 14.2386 1 10.9517C1 9.94861 1.24799 9.00348 1.68642 8.17422C2.09779 7.39558 2.67657 6.71777 3.38115 6.18951C4.08573 5.66124 4.8986 5.29566 5.76133 5.11903C6.1462 5.04087 6.54417 5 6.95166 5C7.35915 5 7.75711 5.04087 8.14199 5.11903C9.00471 5.29566 9.81759 5.66124 10.5222 6.18951C11.2267 6.71777 11.8055 7.39558 12.2169 8.17422C12.6691 9.03007 12.9048 9.98368 12.9033 10.9517Z" fill="#98CDB3" stroke="#98CDB3" stroke-width="1.5" stroke-linecap="round" stroke-linejoin="round"/>
<path d="M6.95161 14.3324V9.17432L5.76128 9.57109M6.95161 14.3324H8.53872ZM6.95161 14.3324H5.3645Z" fill="#98CDB3"/>
<path d="M6.95161 14.3324V9.17432L5.76128 9.57109M6.95161 14.3324H8.53872M6.95161 14.3324H5.3645" stroke="white" stroke-width="1.5" stroke-linecap="round" stroke-linejoin="round"/>
<path d="M2.79557 1.00002C-0.369576 1.00003 6.93131 5 6.93131 5C6.93131 5 13.5569 1.00003 11.6579 1.00002H2.79557Z" fill="#98CDB3" stroke="#98CDB3"/>
</svg>
