<svg width="19" height="20" viewBox="0 0 19 20" fill="none" xmlns="http://www.w3.org/2000/svg">
<path fill-rule="evenodd" clip-rule="evenodd" d="M15.0858 19.9317H13.3025C12.2812 19.9076 11.4934 19.1059 11.4934 18.1068V15.2558C11.4934 14.9138 11.2088 14.6358 10.8594 14.6358H8.18459C7.84259 14.6376 7.5599 14.9166 7.5599 15.2558V18.0975C7.5599 18.167 7.55063 18.2337 7.53117 18.2968C7.43107 19.2143 6.64698 19.9317 5.69698 19.9317H3.91376C1.75517 19.9317 -0.000244141 18.1902 -0.000244141 16.0501V7.97374C0.00902415 7.05248 0.433512 6.20906 1.16663 5.65389L7.22346 0.792671C8.55717 -0.263914 10.4155 -0.263915 11.7464 0.790817L17.8468 5.65667C18.5632 6.20257 18.9877 7.04414 18.9998 7.95428V16.0501C18.9998 18.1902 17.2443 19.9317 15.0858 19.9317Z" fill="#98CDB3"/>
</svg>
