<svg width="22" height="21" viewBox="0 0 22 21" fill="none" xmlns="http://www.w3.org/2000/svg">
<path fill-rule="evenodd" clip-rule="evenodd" d="M10.6351 1.63619C10.5359 1.63619 10.2915 1.66346 10.1617 1.92307L8.16994 5.90554C7.8547 6.53493 7.24713 6.97234 6.54466 7.07269L2.0855 7.71517C1.79099 7.75771 1.69064 7.97587 1.66009 8.06749C1.63282 8.15585 1.58919 8.38055 1.79208 8.57471L5.01646 11.6726C5.53022 12.1667 5.76365 12.879 5.64148 13.576L4.88229 17.9501C4.83539 18.2239 5.00664 18.3831 5.083 18.4376C5.16371 18.4987 5.37969 18.6198 5.64694 18.4802L9.63378 16.4131C10.2621 16.0892 11.0104 16.0892 11.6365 16.4131L15.6222 18.4791C15.8906 18.6176 16.1065 18.4965 16.1883 18.4376C16.2647 18.3831 16.436 18.2239 16.389 17.9501L15.6277 13.576C15.5055 12.879 15.7389 12.1667 16.2527 11.6726L19.4771 8.57471C19.6811 8.38055 19.6374 8.15476 19.6091 8.06749C19.5796 7.97587 19.4793 7.75771 19.1847 7.71517L14.7256 7.07269C14.0242 6.97234 13.4166 6.53493 13.1014 5.90445L11.1074 1.92307C10.9787 1.66346 10.7344 1.63619 10.6351 1.63619ZM5.39605 20.1796C4.94556 20.1796 4.49833 20.0378 4.11546 19.7586C3.45445 19.2743 3.13048 18.4747 3.27119 17.6697L4.03038 13.2957C4.05874 13.1331 4.00311 12.9684 3.88313 12.8528L0.658747 9.75495C0.065356 9.18664 -0.147348 8.34674 0.103534 7.56682C0.356597 6.77818 1.02634 6.21424 1.85207 6.09643L6.31123 5.45396C6.48357 5.42996 6.63192 5.32415 6.70609 5.17362L8.69897 1.19005C9.06657 0.455951 9.80831 0 10.6351 0C11.4619 0 12.2037 0.455951 12.5713 1.19005L14.5652 5.17253C14.6405 5.32415 14.7878 5.42996 14.959 5.45396L19.4182 6.09643C20.2439 6.21424 20.9137 6.77818 21.1667 7.56682C21.4176 8.34674 21.2038 9.18664 20.6104 9.75495L17.386 12.8528C17.266 12.9684 17.2115 13.1331 17.2399 13.2946L18.0002 17.6697C18.1398 18.4758 17.8158 19.2754 17.1537 19.7586C16.4829 20.2505 15.6091 20.3171 14.8685 19.9309L10.8838 17.8661C10.7278 17.7854 10.5413 17.7854 10.3853 17.8661L6.40067 19.932C6.08216 20.0978 5.73856 20.1796 5.39605 20.1796Z" fill="#71727A"/>
</svg>
