<svg width="22" height="21" viewBox="0 0 22 21" fill="none" xmlns="http://www.w3.org/2000/svg">
<path fill-rule="evenodd" clip-rule="evenodd" d="M5.39605 20.1796C4.94556 20.1796 4.49833 20.0378 4.11546 19.7586C3.45445 19.2743 3.13048 18.4747 3.27119 17.6697L4.03038 13.2957C4.05874 13.1331 4.00311 12.9684 3.88313 12.8528L0.658747 9.75495C0.065356 9.18664 -0.147348 8.34674 0.103534 7.56682C0.356597 6.77818 1.02634 6.21424 1.85207 6.09643L6.31123 5.45396C6.48357 5.42996 6.63192 5.32415 6.70609 5.17362L8.69897 1.19005C9.06657 0.455951 9.8083 0 10.6351 0C11.4619 0 12.2037 0.455951 12.5713 1.19005L14.5652 5.17253C14.6405 5.32415 14.7878 5.42996 14.959 5.45396L19.4182 6.09643C20.2439 6.21424 20.9137 6.77818 21.1667 7.56682C21.4176 8.34674 21.2038 9.18664 20.6104 9.75495L17.386 12.8528C17.266 12.9684 17.2115 13.1331 17.2399 13.2946L18.0002 17.6697C18.1398 18.4758 17.8158 19.2754 17.1537 19.7586C16.4829 20.2505 15.6091 20.3171 14.8685 19.9309L10.8838 17.8661C10.7278 17.7854 10.5413 17.7854 10.3853 17.8661L6.40067 19.932C6.08216 20.0978 5.73856 20.1796 5.39605 20.1796Z" fill="#98CDB3"/>
</svg>
