<svg width="19" height="19" viewBox="0 0 19 19" fill="none" xmlns="http://www.w3.org/2000/svg">
<path id="Vector" d="M11.4 3.61905C11.4 2.62381 10.545 1.80952 9.5 1.80952H8.55V0.904762C8.55 0.407143 8.1225 0 7.6 0H3.8C3.2775 0 2.85 0.407143 2.85 0.904762V1.80952H1.9C0.855 1.80952 0 2.62381 0 3.61905V17.1905C0 18.1857 0.855 19 1.9 19H9.5C10.545 19 11.4 18.1857 11.4 17.1905H19V3.61905H11.4ZM17.1 15.381H9.5V17.1905H1.9V3.61905H4.75V1.80952H6.65V3.61905H9.5V5.42857H17.1V15.381ZM6.65 12.6667H8.55V14.4762H6.65V12.6667ZM6.65 6.33333H8.55V8.14286H6.65V6.33333ZM10.45 12.6667H12.35V14.4762H10.45V12.6667ZM10.45 6.33333H12.35V8.14286H10.45V6.33333ZM14.25 12.6667H16.15V14.4762H14.25V12.6667ZM14.25 6.33333H16.15V8.14286H14.25V6.33333Z" fill="#71727A"/>
</svg>
